# xmcd
#
# Track frame offsets:
#	150
#	17082
#	39277
#	60472
#	76557
#	91690
#	112977
#	126465
#	151465
#	161735
#	179987
#
# Disc length: 2513 seconds
#
# Revision: 1
# Processed by: cddbd v1.5PL3 Copyright (c) Steve Scherf et al.
# Submitted via: CDex 1.50Beta5
#
DISCID=8109cf0b
DTITLE=しばたはつみ - Singer Lady
DYEAR=1900
DGENRE=R&B
TTITLE0=シンガーレディ
TTITLE1=もう一度聞かせて
TTITLE2=ステージ・ドア
TTITLE3=折れたヒールの女
TTITLE4=ショウガール
TTITLE5=帰らざる日々
TTITLE6=白夜の果て
TTITLE7=雨に流れて
TTITLE8=20世紀フォックス映画ファンファーレ〜シンデレラ・シューズ
TTITLE9=愛のプリズム
TTITLE10=ララバイ・オブ・スター
EXTD=
EXTT0=
EXTT1=
EXTT2=
EXTT3=
EXTT4=
EXTT5=
EXTT6=
EXTT7=
EXTT8=
EXTT9=
EXTT10=
PLAYORDER=
